<svg width="64" height="64" viewBox="0 0 64 64" fill="none" xmlns="http://www.w3.org/2000/svg">
<g clip-path="url(#clip0_533_10425)">
<g clip-path="url(#clip1_533_10425)">
<g clip-path="url(#clip2_533_10425)">
<mask id="mask0_533_10425" style="mask-type:alpha" maskUnits="userSpaceOnUse" x="3" y="3" width="57" height="57">
<rect x="3" y="3" width="57" height="57" fill="#D9D9D9"/>
</mask>
<g mask="url(#mask0_533_10425)">
<path d="M16.834 51.4501C16.3986 51.4501 15.9632 51.4006 15.5277 51.3017C15.0923 51.2027 14.6569 51.0938 14.2215 50.9751C13.9048 50.8959 13.5882 50.7772 13.2715 50.6188C12.9548 50.4605 12.6777 50.5001 12.4402 50.7376C12.0048 51.173 11.5001 51.4006 10.9262 51.4204C10.3522 51.4402 9.84753 51.2324 9.41211 50.797C8.97669 50.3616 8.74909 49.8569 8.7293 49.2829C8.70951 48.709 8.91732 48.2043 9.35273 47.7688C10.1048 46.9772 11.0152 46.5616 12.084 46.522C13.1527 46.4824 14.2215 46.6011 15.2902 46.8782C15.6069 46.9574 15.9236 47.0761 16.2402 47.2345C16.5569 47.3928 16.834 47.3532 17.0715 47.1157C17.3486 46.8386 17.398 46.522 17.2199 46.1657C17.0418 45.8095 16.9132 45.4532 16.834 45.097C16.5569 44.0282 16.448 42.9595 16.5074 41.8907C16.5668 40.822 16.9725 39.8918 17.7246 39.1001C18.4767 38.3084 19.3871 37.8829 20.4559 37.8235C21.5246 37.7642 22.5934 37.873 23.6621 38.1501C23.9788 38.2293 24.2954 38.3579 24.6121 38.536C24.9288 38.7142 25.2059 38.6845 25.4434 38.447C25.7204 38.1699 25.7699 37.8532 25.5918 37.497C25.4137 37.1407 25.285 36.7845 25.2059 36.4282C24.9288 35.3595 24.81 34.2808 24.8496 33.1923C24.8892 32.1037 25.285 31.1636 26.0371 30.372C26.7892 29.5803 27.7095 29.1548 28.798 29.0954C29.8866 29.036 30.9652 29.1449 32.034 29.422C32.3507 29.5011 32.6673 29.6298 32.984 29.8079C33.3007 29.986 33.5777 29.9563 33.8152 29.7188C34.0923 29.4418 34.1418 29.1251 33.9637 28.7688C33.7855 28.4126 33.6569 28.0563 33.5777 27.7001C33.3007 26.6313 33.1819 25.5527 33.2215 24.4642C33.2611 23.3756 33.6569 22.4355 34.409 21.6438C35.1611 20.8522 36.0814 20.4366 37.1699 20.397C38.2585 20.3574 39.3371 20.4761 40.4059 20.7532C40.7225 20.8324 41.0392 20.9511 41.3559 21.1095C41.6725 21.2678 41.9496 21.2282 42.1871 20.9907C42.4642 20.7136 42.5236 20.397 42.3652 20.0407C42.2069 19.6845 42.0881 19.3282 42.009 18.972C41.7319 17.9032 41.623 16.8345 41.6824 15.7657C41.7418 14.697 42.1475 13.7668 42.8996 12.9751C43.6517 12.1834 44.5621 11.7579 45.6309 11.6985C46.6996 11.6392 47.7684 11.748 48.8371 12.0251C49.1538 12.1043 49.4803 12.223 49.8168 12.3813C50.1533 12.5397 50.4402 12.5001 50.6777 12.2626C51.1132 11.8272 51.6079 11.6095 52.1621 11.6095C52.7163 11.6095 53.2111 11.8272 53.6465 12.2626C54.0819 12.698 54.3095 13.1928 54.3293 13.747C54.3491 14.3011 54.1413 14.7959 53.7059 15.2313C52.9538 16.023 52.0335 16.4485 50.9449 16.5079C49.8564 16.5673 48.7975 16.4584 47.7684 16.1813C47.4517 16.1022 47.1251 15.9735 46.7887 15.7954C46.4522 15.6173 46.1652 15.647 45.9277 15.8845C45.6506 16.1616 45.6012 16.4782 45.7793 16.8345C45.9574 17.1907 46.0861 17.5668 46.1652 17.9626C46.4423 19.0313 46.5512 20.1001 46.4918 21.1688C46.4324 22.2376 46.0267 23.1678 45.2746 23.9595C44.5225 24.7511 43.6022 25.1767 42.5137 25.236C41.4251 25.2954 40.3663 25.1866 39.3371 24.9095C39.0204 24.8303 38.6939 24.7017 38.3574 24.5235C38.021 24.3454 37.734 24.3751 37.4965 24.6126C37.2194 24.8897 37.1699 25.2063 37.348 25.5626C37.5262 25.9188 37.6548 26.2751 37.734 26.6313C38.0111 27.7001 38.1298 28.7787 38.0902 29.8673C38.0506 30.9558 37.6548 31.8959 36.9027 32.6876C36.1507 33.4793 35.2303 33.9048 34.1418 33.9642C33.0533 34.0235 31.9746 33.9147 30.9059 33.6376C30.5892 33.5584 30.2725 33.4298 29.9559 33.2517C29.6392 33.0735 29.3621 33.1032 29.1246 33.3407C28.8475 33.6178 28.798 33.9345 28.9762 34.2907C29.1543 34.647 29.2829 35.0032 29.3621 35.3595C29.6392 36.4282 29.748 37.5069 29.6887 38.5954C29.6293 39.684 29.2236 40.6241 28.4715 41.4157C27.7194 42.2074 26.809 42.623 25.7402 42.6626C24.6715 42.7022 23.6027 42.5834 22.534 42.3063C22.2173 42.2272 21.9007 42.1084 21.584 41.9501C21.2673 41.7918 20.9902 41.8313 20.7527 42.0688C20.4757 42.3459 20.4262 42.6626 20.6043 43.0188C20.7824 43.3751 20.9111 43.7313 20.9902 44.0876C21.2673 45.1563 21.3762 46.2251 21.3168 47.2938C21.2574 48.3626 20.8517 49.2928 20.0996 50.0845C19.6642 50.5199 19.1694 50.8563 18.6152 51.0938C18.0611 51.3313 17.4673 51.4501 16.834 51.4501ZM17.2496 28.6501C14.0829 28.6501 11.3913 27.5418 9.17461 25.3251C6.95794 23.1084 5.84961 20.4168 5.84961 17.2501C5.84961 14.0834 6.95794 11.3918 9.17461 9.1751C11.3913 6.95843 14.0829 5.8501 17.2496 5.8501C20.4163 5.8501 23.1079 6.95843 25.3246 9.1751C27.5413 11.3918 28.6496 14.0834 28.6496 17.2501C28.6496 20.4168 27.5413 23.1084 25.3246 25.3251C23.1079 27.5418 20.4163 28.6501 17.2496 28.6501ZM17.2496 24.3751C19.2288 24.3751 20.9111 23.6824 22.2965 22.297C23.6819 20.9116 24.3746 19.2293 24.3746 17.2501C24.3746 15.2709 23.6819 13.5886 22.2965 12.2032C20.9111 10.8178 19.2288 10.1251 17.2496 10.1251C15.2704 10.1251 13.5882 10.8178 12.2027 12.2032C10.8173 13.5886 10.1246 15.2709 10.1246 17.2501C10.1246 19.2293 10.8173 20.9116 12.2027 22.297C13.5882 23.6824 15.2704 24.3751 17.2496 24.3751ZM41.4746 57.1501C40.2871 57.1501 39.2777 56.7345 38.4465 55.9032C37.6152 55.072 37.1996 54.0626 37.1996 52.8751V41.4751C37.1996 40.2876 37.6152 39.2782 38.4465 38.447C39.2777 37.6157 40.2871 37.2001 41.4746 37.2001H52.8746C54.0621 37.2001 55.0715 37.6157 55.9027 38.447C56.734 39.2782 57.1496 40.2876 57.1496 41.4751V52.8751C57.1496 54.0626 56.734 55.072 55.9027 55.9032C55.0715 56.7345 54.0621 57.1501 52.8746 57.1501H41.4746ZM41.4746 52.8751H52.8746V41.4751H41.4746V52.8751Z" fill="#1C1B1F"/>
</g>
</g>
</g>
</g>
<defs>
<clipPath id="clip0_533_10425">
<rect width="64" height="64" fill="white"/>
</clipPath>
<clipPath id="clip1_533_10425">
<rect width="64" height="64" fill="white"/>
</clipPath>
<clipPath id="clip2_533_10425">
<rect width="64" height="64" fill="white"/>
</clipPath>
</defs>
</svg>
